<svg width="96" height="123" viewBox="0 0 96 123" fill="none" xmlns="http://www.w3.org/2000/svg">
<rect width="96" height="123" fill="#D7CCAE"/>
<rect x="4.77502" width="86.1" height="123" fill="#77593D"/>
<path d="M26.1099 18.4502H25.1667C22.0012 18.4502 18.9654 19.7077 16.727 21.946C14.4887 24.1844 13.2312 27.2202 13.2312 30.3857C13.2312 33.5513 14.4886 36.5873 16.7269 38.8259C18.9652 41.0645 22.001 42.3223 25.1667 42.3228H26.1099C29.2755 42.3223 32.3113 41.0645 34.5496 38.8259C36.7879 36.5873 38.0454 33.5513 38.0454 30.3857C38.0454 27.2202 36.7879 24.1844 34.5495 21.946C32.3112 19.7077 29.2754 18.4502 26.1099 18.4502ZM32.121 30.9979C32.1212 31.8325 31.9569 32.6589 31.6375 33.43C31.318 34.201 30.8498 34.9015 30.2594 35.4914C29.669 36.0814 28.9681 36.5491 28.1969 36.868C27.4256 37.1868 26.599 37.3505 25.7644 37.3496H25.5073C23.8227 37.3496 22.2071 36.6804 21.0159 35.4893C19.8248 34.2981 19.1556 32.6825 19.1556 30.9979V29.7751C19.1577 28.0919 19.8278 26.4783 21.0188 25.2889C22.2097 24.0994 23.8241 23.4313 25.5073 23.4313H25.7644C26.5985 23.4313 27.4243 23.5957 28.1949 23.9149C28.9654 24.2341 29.6655 24.702 30.2552 25.2918C30.8449 25.8817 31.3126 26.5819 31.6317 27.3525C31.9507 28.1231 32.1148 28.9491 32.1146 29.7831L32.121 30.9979Z" fill="#D7CCAE"/>
<path d="M57.1121 19.0352V34.0541L47.8151 19.0352H41.6818V41.7685H46.8703V26.8009L56.1223 41.7685H62.299V19.0352H57.1121Z" fill="#D7CCAE"/>
<path d="M71.8593 37.1232V32.3172H81.2448V27.9578H71.8593V23.6789H81.8393V19.0352H66.5858V41.7685H82.4146V37.1232H71.8593Z" fill="#D7CCAE"/>
<path d="M27.246 81.8551H43.7465V90.1543H14.5875V82.1459C14.5875 82.1459 25.9252 72.039 30.7971 67.5833C35.669 63.1275 34.0911 56.7983 28.7307 56.7983C23.3704 56.7983 22.9189 62.9331 22.9189 62.9331L13.7134 61.6412C13.7134 61.6412 14.9988 48.7256 29.1807 48.7256C43.3625 48.7256 43.7449 59.4142 43.7449 61.0981C43.7449 62.7821 43.5505 67.1366 38.9003 71.3979C34.2502 75.6591 27.246 81.8551 27.246 81.8551Z" fill="#D7CCAE"/>
<path d="M82.4305 74.494H76.9416V49.6943H65.5107L49.0632 74.1711V82.2759H68.1523V90.1493H76.9416V82.2759H82.4305V74.494ZM58.2768 74.494L67.8631 59.5426H68.1475V74.494H58.2768Z" fill="#D7CCAE"/>
<path d="M24.2134 103.642V101.251H25.6136L27.04 103.642H28.309L26.7425 101.071C27.4514 100.839 28.0727 100.247 28.0727 99.2529C28.0727 97.9449 27.2151 97.2462 25.7536 97.2462H23.0757V103.642H24.2134ZM24.2134 100.319V98.1868H25.6223C26.4887 98.1868 26.9263 98.5541 26.9263 99.2529C26.9263 99.9516 26.4887 100.319 25.6223 100.319H24.2134Z" fill="#D7CCAE"/>
<path d="M33.8046 103.642V102.702H30.4179V100.91H33.3845V99.9695H30.4179V98.1868H33.7696V97.2462H29.2802V103.642H33.8046Z" fill="#D7CCAE"/>
<path d="M34.6033 101.707C34.7171 103.114 35.8635 103.75 37.3512 103.75C38.7339 103.75 39.7753 102.98 39.7753 101.815C39.7753 100.785 39.1627 100.265 38.1388 100.068L36.9312 99.8262C36.2573 99.6918 35.9335 99.5216 35.9335 98.9931C35.9335 98.4287 36.4061 98.0256 37.1587 98.0256C37.9376 98.0256 38.4801 98.3749 38.5589 99.002H39.6528C39.5303 97.8016 38.6377 97.1387 37.1499 97.1387C35.7848 97.1387 34.8046 97.927 34.8046 99.0647C34.8046 100.185 35.5485 100.632 36.4674 100.803L37.6138 101.018C38.3664 101.161 38.6377 101.421 38.6377 101.887C38.6377 102.532 38.0601 102.872 37.3162 102.872C36.5374 102.872 35.8023 102.576 35.7235 101.707H34.6033Z" fill="#D7CCAE"/>
<path d="M40.8516 103.642H42.0156V97.2462H40.8516V103.642Z" fill="#D7CCAE"/>
<path d="M45.8391 97.2462H43.4326V103.642H45.8391C47.7207 103.642 48.9633 102.37 48.9633 100.444C48.9633 98.5272 47.7207 97.2462 45.8391 97.2462ZM45.8391 98.1868C47.0818 98.1868 47.7732 99.0199 47.7732 100.444C47.7732 101.869 47.0818 102.702 45.8391 102.702H44.5702V98.1868H45.8391Z" fill="#D7CCAE"/>
<path d="M54.5545 103.642V102.702H51.1678V100.91H54.1345V99.9695H51.1678V98.1868H54.5195V97.2462H50.0302V103.642H54.5545Z" fill="#D7CCAE"/>
<path d="M57.1381 97.2462H55.7817V103.642H56.8931V98.6885H56.9106L60.1223 103.642H61.1987V97.2462H60.096V101.779H60.0785L57.1381 97.2462Z" fill="#D7CCAE"/>
<path d="M63.4587 100.435C63.4587 98.9841 64.0888 98.0793 65.2177 98.0793C66.1103 98.0793 66.5216 98.5989 66.6441 99.2529H67.773C67.5543 97.9987 66.7141 97.1387 65.2177 97.1387C63.4674 97.1387 62.2773 98.4645 62.2773 100.435C62.2773 102.424 63.4674 103.75 65.2177 103.75C66.7141 103.75 67.5543 102.881 67.773 101.636H66.6441C66.5216 102.29 66.1103 102.809 65.2177 102.809C64.0888 102.809 63.4587 101.896 63.4587 100.435Z" fill="#D7CCAE"/>
<path d="M73.3218 103.642V102.702H69.9351V100.91H72.9017V99.9695H69.9351V98.1868H73.2868V97.2462H68.7974V103.642H73.3218Z" fill="#D7CCAE"/>
</svg>
